inDegrees=yes
name=ik_OwnShooting_orientations2.mot
DataType=double
version=3
OpenSimVersion=4.3-2021-08-27-4bc7ad9
endheader
time	pelvis_tilt	pelvis_list	pelvis_rotation	pelvis_tx	pelvis_ty	pelvis_tz	hip_flexion_r	hip_adduction_r	hip_rotation_r	knee_angle_r	knee_angle_r_beta	ankle_angle_r	subtalar_angle_r	mtp_angle_r	hip_flexion_l	hip_adduction_l	hip_rotation_l	knee_angle_l	knee_angle_l_beta	ankle_angle_l	subtalar_angle_l	mtp_angle_l	lumbar_extension	lumbar_bending	lumbar_rotation	arm_flex_r	arm_add_r	arm_rot_r	elbow_flex_r	pro_sup_r	wrist_flex_r	wrist_dev_r	arm_flex_l	arm_add_l	arm_rot_l	elbow_flex_l	pro_sup_l	wrist_flex_l	wrist_dev_l
3.64	-2.503046933211428	2.576313953781252	-61.8336173586105	0	0.9399999999999999	0	44.93757248871432	-10.00000021147098	0	59.84024850882641	1.044409361690648	-4.99999986816401	0	0	44.93757248871432	-10.00000021147098	0	59.84024850882641	1.044409361690648	-4.99999986816401	0	0	-10.17239992719416	-20.93250767034916	-12.79710237662321	-51.78156994230356	67.35466515663178	-89.98226113027155	0.002507007960841518	45.00000040217056	0	0	0	-14.51351330543713	0	74.91909424230307	45.00000040217056	0	0
3.65	-2.51900907954658	2.550190092793442	-61.85696812129407	0	0.9399999999999999	0	44.93811214723672	-10.00000020418513	0	59.8413073421526	1.04442784181842	-4.999999867427994	0	0	44.93811214723672	-10.00000020418513	0	59.8413073421526	1.04442784181842	-4.999999867427994	0	0	-10.25711444872145	-21.25434675279846	-13.08567137562393	-51.81836080487586	66.13807644954596	-89.98350244398966	0.002563551183312331	45.00000039841609	0	0	0	-14.5155660541774	0	74.9197951528472	45.00000039841609	0	0
3.66	-2.527576232571254	2.544834884427794	-61.86926771456663	0	0.9399999999999999	0	44.93812770377922	-10.00000020399539	0	59.84133862819023	1.044428387862786	-4.999999867409183	0	0	44.93812770377922	-10.00000020399539	0	59.84133862819023	1.044428387862786	-4.999999867409183	0	0	-10.23096573177826	-21.25217692659785	-12.84476266974138	-52.35807859194571	65.47227113901839	-89.98382549681061	0.002589790413298433	45.00000039831654	0	0	0	-14.51562832070399	0	74.91981535774948	45.00000039831654	0	0
3.67	-2.546947167694914	2.529436953334047	-61.87158736302183	0	0.9399999999999999	0	44.93850207126317	-10.0000001989448	0	59.8420441161071	1.044440700949769	-4.999999866903624	0	0	44.93850207126317	-10.0000001989448	0	59.8420441161071	1.044440700949769	-4.999999866903624	0	0	-10.1274838322464	-20.78871145776628	-12.51233825555346	-52.2597232500753	67.56071309064896	-89.98186898893432	0.002489919986124157	45.00000039570067	0	0	0	-14.5170236804827	0	74.92030158761931	45.00000039570067	0	0
3.68	-2.5518872831804	2.513820260198471	-61.88725744259693	0	0.9399999999999999	0	44.93852417914722	-10.00000019867969	0	59.84208859937578	1.044441477329269	-4.999999866877539	0	0	44.93852417914722	-10.00000019867969	0	59.84208859937578	1.044441477329269	-4.999999866877539	0	0	-10.29902900139105	-21.4709640125198	-13.16477087497108	-52.05180430077036	67.9897311870064	-89.98243666372093	0.002478963798706274	45.00000039556082	0	0	0	-14.51711238913439	0	74.92033030143186	45.00000039556082	0	0
3.69	-2.564909688416997	2.50362085419996	-61.90377127282286	0	0.9399999999999999	0	44.93853452418332	-10.00000019855635	0	59.84210950238207	1.044441842155553	-4.999999866865417	0	0	44.93853452418332	-10.00000019855635	0	59.84210950238207	1.044441842155553	-4.999999866865417	0	0	-10.28535105863487	-21.47532956131221	-13.09456389474564	-52.13170241933371	67.80574160929949	-89.98257969278154	0.002487906276707029	45.00000039549569	0	0	0	-14.51715402777319	0	74.92034373760833	45.00000039549569	0	0
3.7	-2.59456110405233	2.465043928239055	-61.89371509474226	0	0.9399999999999999	0	44.93901169625462	-10.00000019239005	0	59.84303371687499	1.044457972741449	-4.999999866255174	0	0	44.93901169625462	-10.00000019239005	0	59.84303371687499	1.044457972741449	-4.999999866255174	0	0	-10.26243570413072	-21.28721842739591	-12.83638249866202	-52.57617472784415	66.83864175574179	-89.98300487435411	0.002522733629621814	45.00000039227313	0	0	0	-14.51897256291541	0	74.92096349052866	45.00000039227313	0	0
3.71	-2.610602707475765	2.454536629703131	-61.89305242569656	0	0.9399999999999999	0	44.9395261888912	-10.00000018632158	0	59.84406124658775	1.044475906518098	-4.99999986566909	0	0	44.9395261888912	-10.00000018632158	0	59.84406124658775	1.044475906518098	-4.99999986566909	0	0	-10.54415029846821	-22.27802537319007	-13.87264917062281	-52.23843286152726	67.33667218209848	-89.98390149381196	0.002511306297212433	45.00000038903844	0	0	0	-14.52101084024813	0	74.92163171568875	45.00000038903844	0	0
3.72	-2.619765761850835	2.435634008177205	-61.91839549699719	0	0.9399999999999999	0	44.93953778887387	-10.00000018618898	0	59.84408473576642	1.044476316481605	-4.999999865656299	0	0	44.93953778887387	-10.00000018618898	0	59.84408473576642	1.044476316481605	-4.999999865656299	0	0	-10.58961749958239	-22.5208262346105	-13.88188776847961	-52.63400002680196	67.03121889193076	-89.98427550264162	0.002522397920207341	45.00000038896752	0	0	0	-14.52105786269595	0	74.92164678179593	45.00000038896752	0	0
3.73	-2.631512511519426	2.422918376636305	-61.91423059222759	0	0.9399999999999999	0	44.93955293174228	-10.00000018601575	0	59.84411536772612	1.044476851110158	-4.999999865639585	0	0	44.93955293174228	-10.00000018601575	0	59.84411536772612	1.044476851110158	-4.999999865639585	0	0	-10.55547178630603	-22.42626688389104	-13.60054415361807	-53.17689462638958	66.76548059601211	-89.9842589099752	0.002525448444871272	45.00000038887489	0	0	0	-14.52111920624688	0	74.92166644941823	45.00000038887489	0	0
3.74	-2.643537053084152	2.415320230595152	-61.92317431969209	0	0.9399999999999999	0	44.94006975439613	-10.00000017995308	0	59.84513347894506	1.04449462050308	-4.999999865058354	0	0	44.94006975439613	-10.00000017995308	0	59.84513347894506	1.04449462050308	-4.999999865058354	0	0	-10.75165879629598	-23.15310775335108	-14.39205194808801	-52.81946392219965	67.90424600381985	-89.98433502401994	0.002483634238736042	45.00000038562957	0	0	0	-14.52314984778484	0	74.92233770079031	45.00000038562957	0	0
3.75	-2.653037223266063	2.398939211890978	-61.94074253442366	0	0.9399999999999999	0	44.94010558637818	-10.00000017955185	0	59.84520598264747	1.044495885931407	-4.999999865020013	0	0	44.94010558637818	-10.00000017955185	0	59.84520598264747	1.044495885931407	-4.999999865020013	0	0	-11.06410085888611	-24.25896193947618	-15.29006017440678	-53.0016425304252	67.08863776348028	-89.98584031822826	0.002525884663481993	45.00000038541361	0	0	0	-14.52329547214448	0	74.9223842395231	45.00000038541361	0	0
3.76	-2.667348416568001	2.382308622128825	-61.93827473040665	0	0.9399999999999999	0	44.9401229610334	-10.00000017935784	0	59.84524119550207	1.044496500511659	-4.999999865001493	0	0	44.9401229610334	-10.00000017935784	0	59.84524119550207	1.044496500511659	-4.999999865001493	0	0	-10.97995278778642	-24.01799743335649	-14.86277125470385	-53.47033420467452	66.7029708848395	-89.98579592922982	0.002536152012168097	45.00000038530912	0	0	0	-14.52336617505311	0	74.92240680580034	45.00000038530912	0	0
3.77	-2.674281867296311	2.353603010328479	-61.95839917759923	0	0.9399999999999999	0	44.94074292139237	-10.00000017278008	0	59.84652098682204	1.04451883708393	-4.999999864386348	0	0	44.94074292139237	-10.00000017278008	0	59.84652098682204	1.04451883708393	-4.999999864386348	0	0	-11.33554399566098	-24.88623611555892	-16.25630510640442	-52.32399682361736	67.51816248662118	-89.98627113748572	0.002519870286279282	45.00000038171477	0	0	0	-14.52591906155449	0	74.92321201305863	45.00000038171477	0	0
3.78	-2.690365553334733	2.342984291064804	-61.97320814503785	0	0.9399999999999999	0	44.9407791716844	-10.00000017238483	0	59.846594494996	1.044520120043593	-4.999999864348992	0	0	44.9407791716844	-10.00000017238483	0	59.846594494996	1.044520120043593	-4.999999864348992	0	0	-11.56789898531565	-25.54801609762707	-16.91603123103241	-52.28075866537559	67.49197793376416	-89.98680555915816	0.002526461463212196	45.00000038150041	0	0	0	-14.52606717762078	0	74.92325909509599	45.00000038150041	0	0
3.79	-2.706456242588196	2.311431699166766	-61.98393328959757	0	0.9399999999999999	0	44.94079984306109	-10.00000017216009	0	59.84663647174359	1.044520852676048	-4.999999864327769	0	0	44.94079984306109	-10.00000017216009	0	59.84663647174359	1.044520852676048	-4.999999864327769	0	0	-11.42608006041837	-25.16566529857757	-16.29024522806304	-52.78862152824417	67.84198425810143	-89.98627638978338	0.002501121606050163	45.00000038137841	0	0	0	-14.52615173848915	0	74.92328594317031	45.00000038137841	0	0
3.8	-2.717293363349235	2.307350512035222	-62.00377946399984	0	0.9399999999999999	0	44.94129894369035	-10.0000001666871	0	59.84763361507567	1.044538256110307	-4.999999863815533	0	0	44.94129894369035	-10.0000001666871	0	59.84763361507567	1.044538256110307	-4.999999863815533	0	0	-11.43810221613452	-25.07474798425996	-16.5088312673522	-52.15555495560005	70.16035791514767	-89.98475746249947	0.002409937005500289	45.000000378397	0	0	0	-14.5281519329013	0	74.92393417718303	45.000000378397	0	0
3.81	-2.733267824137225	2.298333342627355	-62.03059986574883	0	0.9399999999999999	0	44.94131356631375	-10.0000001665318	0	59.84766338762744	1.044538775739362	-4.999999863801009	0	0	44.94131356631375	-10.0000001665318	0	59.84766338762744	1.044538775739362	-4.999999863801009	0	0	-11.54451363257341	-25.53570869742456	-16.80559675714356	-52.36029756486904	70.22861393944966	-89.98504376700944	0.002410049849010152	45.00000037831217	0	0	0	-14.52821204026282	0	74.92395316911077	45.00000037831217	0	0
3.82	-2.753441840675238	2.270638226197553	-62.02165523356177	0	0.9399999999999999	0	44.94134462062686	-10.00000016620163	0	59.84772652173913	1.044539877637481	-4.999999863770128	0	0	44.94134462062686	-10.00000016620163	0	59.84772652173913	1.044539877637481	-4.999999863770128	0	0	-11.43792675955792	-25.43573537106791	-16.07893737212618	-53.57133608588698	70.25247309121265	-89.98472233181755	0.002397541701314848	45.0000003781318	0	0	0	-14.52833957208509	0	74.92399350258945	45.0000003781318	0	0
3.83	-2.773076155447689	2.265682622801826	-62.0525217384518	0	0.9399999999999999	0	44.94197576697575	-10.00000015955485	0	59.8490053209341	1.044562196893906	-4.999999863155544	0	0	44.94197576697575	-10.00000015955485	0	59.8490053209341	1.044562196893906	-4.999999863155544	0	0	-11.12325086485441	-24.44761477900843	-15.36075134648661	-53.16381819462247	72.77907964212731	-89.98161205523432	0.002296338113126746	45.00000037447703	0	0	0	-14.5309095085072	0	74.92481323821939	45.00000037447703	0	0
3.84	-2.779724099587646	2.234131631000503	-62.05835739363967	0	0.9399999999999999	0	44.94199279148388	-10.00000015937913	0	59.84904005162375	1.044562803058791	-4.999999863139305	0	0	44.94199279148388	-10.00000015937913	0	59.84904005162375	1.044562803058791	-4.999999863139305	0	0	-11.32494092905463	-25.05301812705949	-15.73495640877169	-53.55395096497499	73.01754320036524	-89.98196843773046	0.002287093534397947	45.00000037438021	0	0	0	-14.53097986144534	0	74.92483534972655	45.00000037438021	0	0
3.85	-2.803371784997697	2.218837636954709	-62.0819379739173	0	0.9399999999999999	0	44.94242074061015	-10.00000015466641	0	59.84987845518847	1.044577435961456	-4.999999862702364	0	0	44.94242074061015	-10.00000015466641	0	59.84987845518847	1.044577435961456	-4.999999862702364	0	0	-11.25210325647432	-25.10330918653231	-15.32670389935288	-54.37289041963192	72.20736387685696	-89.98261009519085	0.002310404101173667	45.0000003718019	0	0	0	-14.53266435883817	0	74.92539117181563	45.0000003718019	0	0
3.86	-2.819213193132467	2.191223836927267	-62.09786211498002	0	0.9399999999999999	0	44.94289188228993	-10.00000014972984	0	59.85081180986643	1.044593726073676	-4.999999862251322	0	0	44.94289188228993	-10.00000014972984	0	59.85081180986643	1.044593726073676	-4.999999862251322	0	0	-11.09868472558394	-24.45534215622925	-14.95137416419603	-54.00035244705429	74.6421311423081	-89.97928200500711	0.002219305537798815	45.00000036907008	0	0	0	-14.53455409278858	0	74.9260030926403	45.00000036907008	0	0
3.87	-2.826733597349467	2.177817800852678	-62.11621157365001	0	0.9399999999999999	0	44.94290531718986	-10.00000014959718	0	59.85083934787466	1.044594206702589	-4.99999986223929	0	0	44.94290531718986	-10.00000014959718	0	59.85083934787466	1.044594206702589	-4.99999986223929	0	0	-11.227653279478	-24.93107535195261	-15.25057468151597	-54.20990236610067	74.72385874928085	-89.97968826231927	0.002219116712720017	45.00000036899604	0	0	0	-14.53461009778121	0	74.92602054194937	45.00000036899604	0	0
